<?xml version="1.0" encoding="UTF-8" standalone="no"?>
<!DOCTYPE svg PUBLIC "-//W3C//DTD SVG 1.1//EN" "http://www.w3.org/Graphics/SVG/1.1/DTD/svg11.dtd">
<svg version="1.1" xmlns="http://www.w3.org/2000/svg" xmlns:xlink="http://www.w3.org/1999/xlink" preserveAspectRatio="xMidYMid meet" viewBox="0 0 640 640" width="640" height="640"><defs><path d="M0 320C0 496 144 640 320 640C496 640 640 496 640 320C640 144 496 0 320 0C144 0 0 144 0 320ZM153.6 412.8L153.6 268.8L153.6 265.6L156.8 265.6C214.4 298.24 246.4 316.37 252.8 320C252.8 320 252.8 320 252.8 323.2C252.8 323.2 252.8 323.2 252.8 326.4C242.88 335.04 163.52 404.16 153.6 412.8C156.8 412.8 156.8 412.8 153.6 412.8C153.6 412.8 153.6 412.8 153.6 412.8L153.6 412.8ZM163.2 454.4C163.2 454.4 160 454.4 156.8 454.4C156.8 454.4 156.8 454.4 156.8 451.2C156.8 450.99 156.8 449.92 156.8 448L278.4 336L281.6 336C300.8 347.52 311.47 353.92 313.6 355.2C320 358.4 323.2 358.4 326.4 355.2C329.92 352.96 358.08 335.04 361.6 332.8C364.8 332.8 364.8 332.8 364.8 332.8C375.68 344.32 462.72 436.48 473.6 448C473.6 451.2 476.8 451.2 473.6 454.4C473.6 454.4 473.6 454.4 473.6 454.4C287.36 454.4 183.89 454.4 163.2 454.4ZM486.4 416C486.08 416.32 483.52 418.88 483.2 419.2C483.2 419.2 483.2 419.2 480 419.2C471.04 409.6 399.36 332.8 390.4 323.2C390.4 323.2 390.4 323.2 390.4 320C390.4 319.79 390.4 318.72 390.4 316.8L480 262.4L483.2 262.4L486.4 265.6L486.4 416C486.4 418.13 486.4 418.13 486.4 416ZM486.4 230.4C483.2 233.6 483.2 233.6 483.2 233.6C483.2 233.6 483.2 233.6 480 233.6C464 242.88 336 317.12 320 326.4C320 326.4 320 326.4 316.8 326.4C316.8 326.4 316.8 326.4 316.8 326.4C218.88 270.72 164.48 239.79 153.6 233.6C153.6 233.6 150.4 233.6 150.4 230.4C150.4 226.88 150.4 198.72 150.4 195.2C150.4 192 150.4 188.8 153.6 185.6C156.8 185.6 160 185.6 163.2 185.6C194.24 185.6 442.56 185.6 473.6 185.6C476.8 185.6 480 185.6 480 188.8C483.2 192 483.2 192 483.2 198.4C483.2 200.53 483.2 211.2 483.2 230.4L486.4 230.4C486.4 230.4 486.4 230.4 486.4 230.4Z" id="g7YkUJmwYn"></path></defs><g><g><g><use xlink:href="#g7YkUJmwYn" opacity="1" fill="#3a3a3a" fill-opacity="1"></use><g><use xlink:href="#g7YkUJmwYn" opacity="1" fill-opacity="0" stroke="#000000" stroke-width="1" stroke-opacity="0"></use></g></g></g></g></svg>