<?xml version="1.0" encoding="UTF-8" standalone="no"?>
<!DOCTYPE svg PUBLIC "-//W3C//DTD SVG 1.1//EN" "http://www.w3.org/Graphics/SVG/1.1/DTD/svg11.dtd">
<svg version="1.1" xmlns="http://www.w3.org/2000/svg" xmlns:xlink="http://www.w3.org/1999/xlink" preserveAspectRatio="xMidYMid meet" viewBox="0 0 64 64" width="64" height="64"><defs><path d="M0 32.81C0 47.3 9.16 59.6 21.88 63.94C23.48 64.24 23.99 63.27 23.99 62.4C23.99 61.62 24 59.44 23.99 56.7C15.09 58.69 13.24 52.38 13.24 52.38C11.79 48.59 9.69 47.58 9.69 47.58C6.79 45.55 9.91 45.59 9.91 45.59C13.12 45.82 14.81 48.97 14.81 48.97C17.67 53.98 22.3 52.53 24.12 51.7C24.42 49.58 25.24 48.13 26.16 47.31C19.05 46.48 11.58 43.67 11.58 31.09C11.58 27.51 12.83 24.58 14.88 22.29C14.55 21.46 13.45 18.12 15.19 13.61C15.19 13.61 17.88 12.72 23.99 16.97C26.54 16.24 29.28 15.88 32 15.87C34.72 15.88 37.46 16.24 40.01 16.97C46.12 12.73 48.81 13.61 48.81 13.61C50.55 18.12 49.45 21.46 49.12 22.29C51.17 24.58 52.41 27.51 52.41 31.09C52.41 43.7 44.93 46.47 37.8 47.28C38.95 48.3 39.99 50.27 39.99 53.33C39.99 57.43 39.99 61.33 39.99 62.41C39.99 63.29 40.51 64.26 42.13 63.94C54.84 59.59 64 47.3 64 32.81C64 14.69 49.67 0 32 0C14.33 0 0 14.69 0 32.81Z" id="c754J21bH"></path></defs><g><g><g><use xlink:href="#c754J21bH" opacity="1" fill="#eeeeee" fill-opacity="1"></use><g><use xlink:href="#c754J21bH" opacity="1" fill-opacity="0" stroke="#000000" stroke-width="1" stroke-opacity="0"></use></g></g></g></g></svg>