<?xml version="1.0" encoding="UTF-8" standalone="no"?>
<!DOCTYPE svg PUBLIC "-//W3C//DTD SVG 1.1//EN" "http://www.w3.org/Graphics/SVG/1.1/DTD/svg11.dtd">
<svg version="1.1" xmlns="http://www.w3.org/2000/svg" xmlns:xlink="http://www.w3.org/1999/xlink" preserveAspectRatio="xMidYMid meet" viewBox="0 0 640 640" width="640" height="640"><defs><path d="M592 0C265.6 0 84.27 0 48 0C22.4 0 0 19.2 0 44.8C0 99.52 0 537.28 0 592C0 620.8 22.4 640 48 640C102.4 640 537.6 640 592 640C617.6 640 640 620.8 640 595.2C640 540.16 640 99.84 640 44.8C640 19.2 617.6 0 592 0C592 0 592 0 592 0ZM96 544L96 240L192 240L188.8 544L188.8 544L96 544ZM140.8 198.4C112 198.4 86.4 172.8 86.4 144C86.4 115.2 112 89.6 140.8 89.6C169.6 89.6 195.2 115.2 195.2 144C195.2 172.8 172.8 198.4 140.8 198.4C140.8 198.4 140.8 198.4 140.8 198.4ZM448 544C448 455.68 448 406.61 448 396.8C448 361.6 448 316.8 400 316.8C352 316.8 342.4 355.2 342.4 396.8C342.4 406.61 342.4 455.68 342.4 544L246.4 544L246.4 240L336 240L336 281.6C336 281.6 336 281.6 336 281.6C355.2 249.6 390.4 230.4 425.6 233.6C521.6 233.6 540.8 297.6 540.8 377.6C541.01 388.69 542.08 444.16 544 544L448 544Z" id="c9nNlXM2o"></path></defs><g><g><g><use xlink:href="#c9nNlXM2o" opacity="1" fill="#3a3a3a" fill-opacity="1"></use><g><use xlink:href="#c9nNlXM2o" opacity="1" fill-opacity="0" stroke="#000000" stroke-width="1" stroke-opacity="0"></use></g></g></g></g></svg>