<?xml version="1.0" encoding="UTF-8" standalone="no"?>
<!DOCTYPE svg PUBLIC "-//W3C//DTD SVG 1.1//EN" "http://www.w3.org/Graphics/SVG/1.1/DTD/svg11.dtd">
<svg version="1.1" xmlns="http://www.w3.org/2000/svg" xmlns:xlink="http://www.w3.org/1999/xlink" preserveAspectRatio="xMidYMid meet" viewBox="0 0 640 640" width="640" height="640"><defs><path d="M0 320C0 496 144 640 320 640C496 640 640 496 640 320C640 144 496 0 320 0C144 0 0 144 0 320ZM464 496C460.8 499.2 444.8 502.4 444.8 502.4C361.6 502.4 281.6 470.4 224 412.8C166.4 355.2 131.2 272 134.4 188.8C134.4 188.8 137.6 176 140.8 169.6C143.36 167.04 163.84 146.56 166.4 144C176 137.6 192 131.2 204.8 137.6C205.44 137.92 210.56 140.48 211.2 140.8C224 144 236.8 160 240 172.8C241.6 177.28 254.4 213.12 256 217.6C259.2 230.4 256 249.6 246.4 259.2C244.48 261.12 229.12 276.48 227.2 278.4C243.2 342.4 294.4 393.6 358.4 409.6C360.32 408 375.68 395.2 377.6 393.6C387.2 384 406.4 377.6 419.2 384C424 385.28 462.4 395.52 467.2 396.8C480 400 496 412.8 499.2 425.6C499.52 426.24 502.08 431.36 502.4 432C505.6 441.6 499.2 460.8 489.6 470.4C484.48 475.52 466.56 493.44 464 496Z" id="aQlh3FdbG"></path></defs><g><g><g><use xlink:href="#aQlh3FdbG" opacity="1" fill="#3a3a3a" fill-opacity="1"></use><g><use xlink:href="#aQlh3FdbG" opacity="1" fill-opacity="0" stroke="#000000" stroke-width="1" stroke-opacity="0"></use></g></g></g></g></svg>