<?xml version="1.0" encoding="UTF-8" standalone="no"?>
<!DOCTYPE svg PUBLIC "-//W3C//DTD SVG 1.1//EN" "http://www.w3.org/Graphics/SVG/1.1/DTD/svg11.dtd">
<svg version="1.1" xmlns="http://www.w3.org/2000/svg" xmlns:xlink="http://www.w3.org/1999/xlink" preserveAspectRatio="xMidYMid meet" viewBox="0 0 64 23" width="64" height="23"><defs><path d="M36.09 6.91C36.16 7.4 36.28 7.77 36.49 8.04C36.83 8.46 37.29 8.67 37.9 8.67C38.36 8.67 38.71 8.56 38.96 8.34C39.19 8.17 39.33 7.89 39.33 7.6C39.33 7.32 39.2 7.06 38.98 6.88C38.75 6.68 38.21 6.47 37.35 6.28C35.95 5.97 34.94 5.55 34.35 5.02C33.76 4.52 33.42 3.79 33.45 3.02C33.45 2.49 33.61 1.96 33.91 1.52C34.26 1.02 34.73 0.62 35.3 0.4C35.91 0.14 36.77 0 37.85 0C39.17 0 40.17 0.24 40.87 0.74C41.56 1.23 41.98 2.01 42.11 3.09C41.81 3.11 39.4 3.25 39.1 3.26C39.02 2.8 38.85 2.46 38.59 2.24C38.32 2.02 37.97 1.92 37.52 1.92C37.15 1.92 36.87 2 36.69 2.15C36.52 2.29 36.4 2.5 36.41 2.73C36.41 2.9 36.5 3.07 36.64 3.17C36.79 3.31 37.15 3.44 37.72 3.55C39.12 3.85 40.12 4.15 40.73 4.47C41.34 4.78 41.78 5.16 42.05 5.61C42.33 6.07 42.47 6.61 42.45 7.15C42.45 7.8 42.27 8.45 41.9 8.99C41.52 9.56 40.98 10 40.36 10.26C39.7 10.55 38.87 10.7 37.87 10.7C36.11 10.7 34.89 10.37 34.21 9.68C33.53 9 33.12 8.14 33.04 7.1C33.65 7.06 35.78 6.93 36.09 6.91ZM0.73 0.19C3.93 0.19 5.71 0.19 6.07 0.19C7.05 0.19 7.81 0.27 8.34 0.44C8.85 0.6 9.3 0.94 9.6 1.39C9.93 1.89 10.1 2.46 10.08 3.07C10.12 4.08 9.6 5.06 8.71 5.56C8.36 5.76 7.98 5.9 7.58 5.97C7.87 6.05 8.16 6.19 8.42 6.35C8.61 6.51 8.78 6.7 8.93 6.9C9.1 7.09 9.25 7.31 9.38 7.54C9.48 7.74 10 8.74 10.93 10.54L7.29 10.54C6.27 8.63 5.69 7.57 5.58 7.36C5.36 6.95 5.18 6.69 5 6.56C4.77 6.4 4.49 6.32 4.21 6.32C4.2 6.32 4.1 6.32 3.94 6.32L3.94 10.52L0.73 10.52L0.73 0.19ZM5.29 4.37C5.58 4.35 5.86 4.3 6.14 4.23C6.34 4.2 6.53 4.08 6.66 3.91C6.97 3.49 6.92 2.9 6.54 2.55C6.33 2.37 5.93 2.28 5.35 2.28C5.25 2.28 4.78 2.28 3.94 2.28L3.94 4.37C4.75 4.37 5.2 4.37 5.29 4.37ZM3.04 19.19C3.11 19.69 3.24 20.06 3.45 20.33C3.77 20.74 4.25 20.96 4.86 20.96C5.31 20.96 5.67 20.86 5.92 20.64C6.15 20.45 6.29 20.19 6.29 19.9C6.29 19.62 6.16 19.36 5.94 19.18C5.71 18.97 5.16 18.77 4.3 18.58C2.89 18.27 1.89 17.85 1.3 17.32C0.71 16.82 0.37 16.09 0.39 15.32C0.39 14.79 0.56 14.25 0.86 13.81C1.2 13.32 1.68 12.92 2.25 12.7C2.86 12.44 3.72 12.3 4.79 12.3C6.11 12.3 7.12 12.54 7.81 13.04C8.51 13.54 8.91 14.31 9.04 15.39C8.74 15.4 6.33 15.54 6.03 15.56C5.95 15.1 5.79 14.76 5.52 14.54C5.27 14.32 4.91 14.22 4.46 14.23C4.09 14.23 3.81 14.31 3.62 14.47C3.44 14.61 3.33 14.82 3.35 15.05C3.35 15.23 3.44 15.39 3.58 15.49C3.73 15.63 4.09 15.76 4.65 15.87C6.05 16.17 7.05 16.47 7.66 16.79C8.28 17.1 8.72 17.48 8.98 17.93C9.26 18.4 9.4 18.93 9.4 19.46C9.4 20.11 9.2 20.74 8.85 21.29C8.46 21.85 7.93 22.29 7.31 22.56C6.65 22.85 5.81 23 4.82 23C3.06 23 1.84 22.66 1.16 21.98C0.47 21.29 0.09 20.43 0 19.39C0 19.39 2.74 19.21 3.04 19.19Z" id="fHuCiFfNV"></path><path d="M18.2 19.43C18.05 20.13 17.74 20.8 17.31 21.39C16.91 21.91 16.39 22.32 15.8 22.58C15.2 22.85 14.44 22.99 13.51 22.99C12.39 22.99 11.46 22.83 10.76 22.5C10.04 22.18 9.42 21.6 8.9 20.78C8.38 19.96 8.13 18.9 8.13 17.62C8.13 15.91 8.58 14.59 9.49 13.68C10.41 12.76 11.69 12.3 13.36 12.3C14.67 12.3 15.69 12.56 16.44 13.09C17.18 13.62 17.74 14.43 18.11 15.51C17.82 15.58 15.56 16.08 15.28 16.14C15.21 15.9 15.11 15.65 14.97 15.45C14.8 15.2 14.58 15.02 14.31 14.88C14.04 14.74 13.74 14.68 13.44 14.68C12.71 14.68 12.16 14.97 11.77 15.56C11.48 15.99 11.33 16.67 11.33 17.6C11.33 18.74 11.51 19.53 11.86 19.96C12.2 20.39 12.69 20.59 13.33 20.59C13.94 20.59 14.4 20.42 14.71 20.08C15.03 19.73 15.26 19.23 15.4 18.58C15.96 18.75 17.92 19.34 18.2 19.43ZM25.13 12.47L25.13 16.09L28.63 16.09L28.63 12.47L31.85 12.47L31.85 22.81L28.63 22.81L28.63 18.63L25.13 18.63L25.13 22.81L21.94 22.81L21.94 12.47L25.13 12.47Z" id="a1yJItTBtQ"></path><path d="M32.82 13.7C33.76 12.76 35.08 12.29 36.76 12.29C38.48 12.29 39.8 12.75 40.74 13.68C41.68 14.6 42.14 15.9 42.14 17.56C42.14 18.78 41.93 19.76 41.53 20.54C41.13 21.3 40.52 21.92 39.77 22.34C38.99 22.77 38.03 22.99 36.89 22.99C35.72 22.99 34.76 22.8 33.99 22.43C33.2 22.04 32.56 21.43 32.13 20.67C31.65 19.86 31.41 18.86 31.41 17.64C31.41 15.95 31.88 14.64 32.82 13.7ZM35.18 19.91C35.57 20.36 36.1 20.59 36.77 20.59C37.45 20.59 37.99 20.37 38.37 19.92C38.75 19.47 38.93 18.67 38.93 17.52C38.93 16.54 38.74 15.83 38.34 15.39C37.95 14.94 37.42 14.72 36.75 14.72C36.16 14.69 35.59 14.95 35.2 15.4C34.8 15.85 34.6 16.6 34.6 17.65C34.6 18.7 34.8 19.45 35.18 19.91ZM46.83 13.7C47.77 12.76 49.09 12.29 50.77 12.29C52.49 12.29 53.82 12.75 54.75 13.68C55.68 14.6 56.15 15.9 56.15 17.56C56.15 18.78 55.94 19.76 55.54 20.54C55.14 21.3 54.53 21.92 53.78 22.34C53 22.77 52.04 22.99 50.89 22.99C49.73 22.99 48.76 22.8 48 22.43C47.21 22.04 46.56 21.43 46.14 20.67C45.66 19.86 45.42 18.86 45.42 17.64C45.42 15.95 45.89 14.64 46.83 13.7ZM49.19 19.91C49.57 20.36 50.11 20.59 50.78 20.59C51.46 20.59 51.99 20.37 52.38 19.92C52.76 19.47 52.94 18.67 52.94 17.52C52.94 16.54 52.75 15.83 52.35 15.39C51.96 14.94 51.43 14.72 50.76 14.72C50.16 14.69 49.59 14.95 49.2 15.4C48.81 15.85 48.61 16.6 48.61 17.65C48.61 18.7 48.81 19.45 49.19 19.91Z" id="j1m8sbLixQ"></path><path d="M59.01 12.47L59.01 20.27L64 20.27L64 22.81L55.8 22.81L55.8 12.47L59.01 12.47Z" id="b4Se9LqPD"></path><path d="M54.51 2.7C56.5 5.35 55.51 9.45 52.29 11.87C49.08 14.3 44.85 14.12 42.86 11.48C40.87 8.83 41.86 4.73 45.07 2.3C48.29 -0.12 52.52 0.06 54.51 2.7Z" id="bwPuvz8nH"></path><path d="M54.51 2.7C56.5 5.35 55.51 9.45 52.29 11.87C49.08 14.3 44.85 14.12 42.86 11.48C40.87 8.83 41.86 4.73 45.07 2.3C48.29 -0.12 52.52 0.06 54.51 2.7Z" id="dCR7rUyux"></path><path d="M54.51 2.7C56.5 5.35 55.51 9.45 52.29 11.87C49.08 14.3 44.85 14.12 42.86 11.48C40.87 8.83 41.86 4.73 45.07 2.3C48.29 -0.12 52.52 0.06 54.51 2.7Z" id="aw3MMYT4N"></path><path d="M46.59 5.52C47.44 6.73 47.92 7.41 48.01 7.54C48.25 7.87 48.44 8.21 48.58 8.6C48.66 8.89 48.64 9.2 48.52 9.48C48.37 9.82 48.13 10.11 47.8 10.32C47.42 10.59 47.1 10.74 46.82 10.78C46.55 10.83 46.27 10.78 46.02 10.67C45.74 10.53 45.5 10.33 45.31 10.08C45.41 9.98 46.21 9.24 46.31 9.15C46.39 9.28 46.49 9.39 46.61 9.49C46.69 9.54 46.78 9.58 46.89 9.58C46.97 9.58 47.05 9.54 47.11 9.5C47.22 9.43 47.31 9.29 47.29 9.15C47.26 8.95 47.18 8.76 47.05 8.61C46.94 8.46 46.4 7.7 45.43 6.33L46.59 5.52ZM49.96 6.78C50.07 6.92 50.22 7.02 50.38 7.08C50.62 7.15 50.86 7.1 51.06 6.95C51.2 6.86 51.31 6.73 51.36 6.57C51.43 6.36 51.31 6.13 51.1 6.06C51.07 6.05 51.03 6.04 51 6.04C50.86 6.03 50.62 6.09 50.26 6.24C49.67 6.48 49.2 6.57 48.86 6.54C48.52 6.5 48.21 6.33 48.02 6.04C47.88 5.84 47.81 5.61 47.8 5.38C47.8 5.11 47.87 4.85 48.02 4.63C48.24 4.32 48.51 4.05 48.83 3.84C49.32 3.51 49.75 3.34 50.12 3.34C50.49 3.34 50.84 3.52 51.16 3.88C51.06 3.96 50.22 4.62 50.12 4.7C49.91 4.43 49.52 4.37 49.25 4.58C49.25 4.58 49.22 4.61 49.22 4.62C49.1 4.69 49.02 4.79 48.97 4.92C48.94 5.01 48.96 5.11 49.02 5.19C49.07 5.25 49.13 5.3 49.22 5.3C49.31 5.31 49.47 5.26 49.7 5.16C50.28 4.92 50.72 4.78 51.02 4.73C51.28 4.69 51.54 4.71 51.79 4.81C52.01 4.91 52.19 5.07 52.32 5.26C52.48 5.5 52.57 5.77 52.58 6.06C52.6 6.36 52.52 6.65 52.35 6.91C52.14 7.22 51.88 7.49 51.57 7.69C50.93 8.13 50.41 8.32 49.99 8.25C49.54 8.18 49.17 7.95 48.9 7.61C49.11 7.45 49.85 6.86 49.96 6.78Z" id="dSlZ0qxrn"></path></defs><g><g><g><use xlink:href="#fHuCiFfNV" opacity="1" fill="#eeeeee" fill-opacity="1"></use><g><use xlink:href="#fHuCiFfNV" opacity="1" fill-opacity="0" stroke="#000000" stroke-width="1" stroke-opacity="0"></use></g></g><g><use xlink:href="#a1yJItTBtQ" opacity="1" fill="#eeeeee" fill-opacity="1"></use><g><use xlink:href="#a1yJItTBtQ" opacity="1" fill-opacity="0" stroke="#000000" stroke-width="1" stroke-opacity="0"></use></g></g><g><use xlink:href="#j1m8sbLixQ" opacity="1" fill="#eeeeee" fill-opacity="1"></use><g><use xlink:href="#j1m8sbLixQ" opacity="1" fill-opacity="0" stroke="#000000" stroke-width="1" stroke-opacity="0"></use></g></g><g><use xlink:href="#b4Se9LqPD" opacity="1" fill="#eeeeee" fill-opacity="1"></use><g><use xlink:href="#b4Se9LqPD" opacity="1" fill-opacity="0" stroke="#000000" stroke-width="1" stroke-opacity="0"></use></g></g><g><use xlink:href="#bwPuvz8nH" opacity="1" fill="#ffffff" fill-opacity="1"></use><g><use xlink:href="#bwPuvz8nH" opacity="1" fill-opacity="0" stroke="#000000" stroke-width="1" stroke-opacity="0"></use></g></g><g><use xlink:href="#dCR7rUyux" opacity="1" fill="#ffffff" fill-opacity="1"></use><g><use xlink:href="#dCR7rUyux" opacity="1" fill-opacity="0" stroke="#000000" stroke-width="1" stroke-opacity="0"></use></g></g><g><use xlink:href="#aw3MMYT4N" opacity="1" fill="#3a3a3a" fill-opacity="1"></use><g><use xlink:href="#aw3MMYT4N" opacity="1" fill-opacity="0" stroke="#eeeeee" stroke-width="0.5" stroke-opacity="1"></use></g></g><g><use xlink:href="#dSlZ0qxrn" opacity="1" fill="#eeeeee" fill-opacity="1"></use><g><use xlink:href="#dSlZ0qxrn" opacity="1" fill-opacity="0" stroke="#000000" stroke-width="1" stroke-opacity="0"></use></g></g></g></g></svg>