<?xml version="1.0" encoding="UTF-8" standalone="no"?>
<!DOCTYPE svg PUBLIC "-//W3C//DTD SVG 1.1//EN" "http://www.w3.org/Graphics/SVG/1.1/DTD/svg11.dtd">
<svg version="1.1" xmlns="http://www.w3.org/2000/svg" xmlns:xlink="http://www.w3.org/1999/xlink" preserveAspectRatio="xMidYMid meet" viewBox="0 0 640 640" width="640" height="640"><defs><path d="M0 320C0 496 144 640 320 640C496 640 640 496 640 320C640 144 496 0 320 0C144 0 0 144 0 320ZM441.6 470.4C438.4 489.6 425.6 492.8 409.6 483.2C404.05 479.15 376.32 458.88 326.4 422.4C301.44 445.44 287.57 458.24 284.8 460.8C281.6 464 275.2 470.4 268.8 470.4C269.23 464.64 271.36 435.84 275.2 384C369.28 299.52 421.55 252.59 432 243.2C438.4 236.8 432 233.6 422.4 240C409.6 248.11 345.6 288.64 230.4 361.6C180.48 346.24 152.75 337.71 147.2 336C124.8 332.8 124.8 320 147.2 310.4C179.84 297.92 440.96 198.08 473.6 185.6C486.4 179.2 499.2 188.8 496 211.2C485.12 263.04 447.04 444.48 441.6 470.4Z" id="go1XgMy4U"></path></defs><g><g><g><use xlink:href="#go1XgMy4U" opacity="1" fill="#3a3a3a" fill-opacity="1"></use><g><use xlink:href="#go1XgMy4U" opacity="1" fill-opacity="0" stroke="#000000" stroke-width="1" stroke-opacity="0"></use></g></g></g></g></svg>